<svg width="8" height="15" viewBox="0 0 8 15" fill="none" xmlns="http://www.w3.org/2000/svg">
<symbol id="arrow"  width="8" height="15" viewBox="0 0 8 15">
    <path fill-rule="evenodd" clip-rule="evenodd" d="M6.86474 14.8314C7.12953 14.8319 7.38614 14.7469 7.59003 14.591C7.82179 14.4138 7.96757 14.1588 7.99521 13.8823C8.02285 13.6058 7.93007 13.3305 7.73735 13.1172L2.66032 7.51434L7.55603 1.90108C7.74616 1.68513 7.83512 1.40818 7.80321 1.13155C7.77131 0.854916 7.62117 0.601428 7.38604 0.427204C7.149 0.234828 6.83569 0.142386 6.52161 0.172149C6.20753 0.201913 5.92115 0.351184 5.73147 0.583999L0.257803 6.8558C-0.0859353 7.24152 -0.0859353 7.79761 0.257803 8.18333L5.92413 14.4551C6.1547 14.7117 6.50409 14.8515 6.86474 14.8314Z" fill="#000055"/>
</symbol>
</svg>
