<svg width="40" height="40" viewBox="0 0 40 40" fill="none" xmlns="http://www.w3.org/2000/svg">
<symbol id="viber" width="40" height="40" viewBox="0 0 40 40" >
    <path fill-rule="evenodd" clip-rule="evenodd" d="M25.986 27.411C27.7239 27.0239 29.9111 24.9288 30.3377 23.2436C31.0494 19.9829 31.0494 16.6774 30.3377 13.4166C29.9111 11.7314 27.7248 9.63635 25.986 9.24928C22.0135 8.49357 17.9848 8.49357 14.0114 9.24928C12.2735 9.63635 10.0872 11.7314 9.65972 13.4166C8.94877 16.6773 8.94877 19.9828 9.65972 23.2435C10.0872 24.9287 12.2735 27.0238 14.0114 27.4109C14.0889 27.4261 14.1466 27.4934 14.1466 27.5723V32.349C14.1466 32.5877 14.438 32.7053 14.6039 32.5324L19.0058 28.0141C19.0376 27.9815 19.0814 27.9638 19.127 27.9651C21.4178 28.0285 23.7109 27.8436 25.986 27.411ZM23.5247 25.3762C23.3495 25.3279 23.1809 25.2814 23.0207 25.215C20.5705 24.1984 18.3154 22.8869 16.5292 20.8765C15.5134 19.7333 14.7184 18.4426 14.0463 17.0767C13.7606 16.496 13.5152 15.8948 13.2701 15.2947L13.1853 15.0871C12.9357 14.4773 13.3034 13.8473 13.6905 13.3878C14.0538 12.9566 14.5213 12.6265 15.0275 12.3833C15.4227 12.1935 15.8125 12.3029 16.1011 12.6379C16.7249 13.362 17.298 14.1231 17.7621 14.9625C18.0474 15.4788 17.9691 16.1098 17.452 16.4612C17.351 16.5298 17.2572 16.608 17.1635 16.6861L17.0946 16.7433C16.9919 16.8278 16.8953 16.9132 16.8249 17.0277C16.6962 17.2371 16.6901 17.4841 16.773 17.7117C17.4107 19.4644 18.4856 20.8272 20.2497 21.5612L20.3251 21.5929C20.5828 21.7016 20.8444 21.812 21.1406 21.7775C21.493 21.7363 21.6912 21.4717 21.8906 21.2054C21.9994 21.0602 22.1085 20.9145 22.2432 20.8044C22.6162 20.4994 23.0929 20.4953 23.4947 20.7496C23.8966 21.004 24.2863 21.277 24.6735 21.553L24.7518 21.6087C25.1055 21.8605 25.4562 22.11 25.7828 22.3976C26.1199 22.6945 26.236 23.0841 26.0462 23.487C25.6986 24.225 25.1929 24.8389 24.4633 25.2308C24.3224 25.3064 24.1628 25.3471 24.0016 25.3881C23.9271 25.4071 23.8524 25.4261 23.7789 25.4487C23.6929 25.4226 23.6079 25.3991 23.5247 25.3762ZM26.4068 16.9246C25.8427 13.7561 23.2104 11.6291 20.0054 11.5393L19.9514 11.5387C19.9073 11.538 19.8633 11.5373 19.8194 11.5397C19.5922 11.5519 19.3907 11.7419 19.4333 11.9806C19.4812 12.2495 19.7515 12.2767 19.9743 12.2992L20.0129 12.3031C20.1256 12.3149 20.2386 12.3247 20.3516 12.3345C20.602 12.3561 20.8524 12.3777 21.0988 12.4217C23.4752 12.8456 25.3789 14.8208 25.7107 17.2082C25.7608 17.569 25.7855 17.9335 25.8102 18.2976C25.8165 18.39 25.8228 18.4824 25.8294 18.5746C25.8461 18.805 25.9617 19.02 26.2186 19.0169C26.4673 19.0139 26.5979 18.7949 26.5799 18.5645L26.5643 18.3618C26.5278 17.8807 26.4911 17.398 26.4068 16.9246ZM24.8758 17.8532C24.8744 17.8633 24.8733 17.8769 24.8719 17.8929C24.8678 17.9404 24.8618 18.0097 24.8443 18.076C24.7592 18.3977 24.2714 18.438 24.159 18.1133C24.1258 18.0169 24.1208 17.9073 24.1206 17.8035C24.1194 17.1247 23.9719 16.4466 23.6296 15.856C23.2777 15.2489 22.7401 14.7386 22.1096 14.4299C21.7283 14.2432 21.316 14.1271 20.8981 14.058C20.7844 14.0392 20.6699 14.025 20.5554 14.0108C20.486 14.0021 20.4166 13.9935 20.3473 13.9839C20.1249 13.953 20.0062 13.8112 20.0167 13.5921C20.0265 13.3867 20.1766 13.239 20.4004 13.2516C21.1359 13.2934 21.8464 13.4524 22.5002 13.7986C23.83 14.5028 24.5895 15.6143 24.8113 17.0985C24.8148 17.1226 24.8192 17.1466 24.8236 17.1706C24.8314 17.2136 24.8392 17.2566 24.8425 17.2999C24.8513 17.417 24.8578 17.5343 24.8654 17.6699L24.8758 17.8532ZM22.4432 17.3861C22.4709 17.632 22.6144 17.7804 22.8825 17.7756C23.0046 17.7673 23.1298 17.6826 23.169 17.5136C23.1912 17.418 23.182 17.3127 23.1733 17.2124L23.1724 17.2025C23.0457 15.7397 22.1576 15.0973 20.915 15.0076C20.7162 14.9932 20.5392 15.1353 20.5087 15.3172C20.4752 15.5171 20.5931 15.6897 20.8062 15.7419C20.8981 15.7645 20.9918 15.773 21.0857 15.7816C21.1922 15.7913 21.2988 15.801 21.4034 15.8312C21.5582 15.8759 21.706 15.9451 21.8364 16.0402C22.1128 16.2414 22.2873 16.5458 22.3679 16.8743C22.4031 17.0178 22.4193 17.1664 22.4353 17.3144C22.4379 17.3383 22.4405 17.3623 22.4432 17.3861Z" />
<path fill-rule="evenodd" clip-rule="evenodd" d="M0 0H40V40H0V0ZM32.6417 12.862L32.6496 12.8936C33.4395 16.501 33.4395 20.1593 32.6496 23.7668L32.6417 23.7984C32.0027 26.3815 29.1221 29.1533 26.4767 29.73L26.4468 29.7361C24.3078 30.1442 22.1531 30.3479 19.9992 30.3479C19.3652 30.3479 18.7312 30.3281 18.0976 30.2927L15.1761 33.3294C14.4529 34.0825 13.1811 33.5699 13.1811 32.5263V29.6429C10.6344 28.9156 7.96828 26.2712 7.35573 23.7983L7.3487 23.7667C6.55876 20.1593 6.55876 16.501 7.3487 12.8936L7.35573 12.862C7.99558 10.2789 10.8762 7.50711 13.5208 6.93046L13.5515 6.92431C17.8295 6.10804 22.168 6.10804 26.4468 6.92431L26.4767 6.93046C29.1221 7.50711 32.0027 10.2789 32.6417 12.862Z" />
</symbol>
</svg>
