<svg width="40" height="40" viewBox="0 0 40 40" fill="none" xmlns="http://www.w3.org/2000/svg">
<symbol id="mail" width="40" height="40" viewBox="0 0 40 40">
    <path fill-rule="evenodd" clip-rule="evenodd" d="M0 6.4C0 2.86538 2.86538 0 6.4 0H33.6C37.1346 0 40 2.86538 40 6.4V33.6C40 37.1346 37.1346 40 33.6 40H6.4C2.86538 40 0 37.1346 0 33.6V6.4ZM8.50105 12.4604C11.795 15.25 17.5747 20.1577 19.2735 21.688C19.5015 21.8945 19.7461 21.9995 20.0001 21.9995C20.2535 21.9995 20.4976 21.8955 20.7252 21.6899C22.4254 20.1582 28.2051 15.25 31.4991 12.4604C31.7042 12.2871 31.7354 11.9824 31.5694 11.7705C31.1856 11.2808 30.6134 11 30 11H10.0001C9.3868 11 8.81451 11.2808 8.43074 11.7705C8.26471 11.9824 8.29597 12.2871 8.50105 12.4604ZM31.1768 14.0434C31.3243 13.9174 31.5328 13.8887 31.71 13.9712C31.8867 14.0527 32 14.23 32.0001 14.4248V25.8442C32.0001 26.0317 31.8951 26.2036 31.7281 26.289C31.6563 26.3261 31.5782 26.3442 31.5 26.3442C31.397 26.3442 31.2945 26.3125 31.2081 26.25C29.0406 24.6904 26.0392 22.496 24.0474 20.9008C23.9312 20.8081 23.8624 20.668 23.8599 20.5195C23.8575 20.3706 23.921 20.2285 24.0338 20.1318C26.1773 18.2881 29.0196 15.872 31.1768 14.0434ZM8.792 26.2512C10.96 24.6916 13.9619 22.4973 15.9531 20.902C16.0693 20.8093 16.1382 20.6691 16.1406 20.5207C16.1431 20.3718 16.0796 20.2297 15.9668 20.133C13.8232 18.2893 10.9805 15.8732 8.82327 14.0446C8.67481 13.9186 8.46584 13.8908 8.29006 13.9724C8.1133 14.0539 8 14.2312 8 14.426V25.8454C8 26.0329 8.105 26.2048 8.27197 26.2903C8.34373 26.3274 8.42188 26.3454 8.50002 26.3454C8.60305 26.3454 8.70556 26.3137 8.792 26.2512ZM23.1363 21.4528C25.438 23.321 29.294 26.113 31.3873 27.6105C31.504 27.6945 31.5792 27.8244 31.5939 27.9674C31.608 28.1105 31.5602 28.2526 31.4625 28.3576C31.0831 28.7653 30.5504 28.9992 30.0001 28.9992H10.0001C9.44978 28.9992 8.91658 28.7653 8.53811 28.3575C8.43996 28.2521 8.39261 28.11 8.40677 27.9669C8.42139 27.8239 8.49658 27.6945 8.6133 27.6105C10.71 26.11 14.5703 23.3146 16.8643 21.4528C17.0523 21.299 17.3243 21.3038 17.5074 21.464C17.959 21.8566 18.337 22.1896 18.604 22.4303C19.4292 23.1745 20.5718 23.1745 21.3951 22.4313C21.6632 22.1901 22.0411 21.8581 22.4928 21.4641C22.6773 21.3049 22.9488 21.3 23.1363 21.4528Z" />
</symbol>
</svg>
