<svg width="40" height="40" viewBox="0 0 40 40" fill="none" xmlns="http://www.w3.org/2000/svg">
<symbol id="message" width="40" height="40" viewBox="0 0 40 40">
    <path d="M11.7501 13.2994H22.3502C22.7647 13.2994 23.1002 13.6349 23.1002 14.0494C23.1002 14.4639 22.7647 14.7994 22.3502 14.7994H11.7501C11.3356 14.7994 11.0001 14.4639 11.0001 14.0494C11.0001 13.6349 11.3356 13.2994 11.7501 13.2994Z" />
<path d="M19.3501 20.7995H11.7501C11.3356 20.7995 11.0001 20.464 11.0001 20.0495C11.0001 19.635 11.3356 19.2995 11.7501 19.2995H19.3501C19.7646 19.2995 20.1001 19.635 20.1001 20.0495C20.1001 20.464 19.7646 20.7995 19.3501 20.7995Z" />
<path d="M25.3502 17.7994H11.7501C11.3356 17.7994 11.0001 17.4639 11.0001 17.0494C11.0001 16.6349 11.3356 16.2994 11.7501 16.2994H25.3502C25.7647 16.2994 26.1002 16.6349 26.1002 17.0494C26.1002 17.4639 25.7647 17.7994 25.3502 17.7994Z" />
<path fill-rule="evenodd" clip-rule="evenodd" d="M0 6.4C0 2.86538 2.86538 0 6.4 0H33.6C37.1346 0 40 2.86538 40 6.4V33.6C40 37.1346 37.1346 40 33.6 40H6.4C2.86538 40 0 37.1346 0 33.6V6.4ZM26.8502 8.79938H10.25C9.009 8.79938 8 9.80888 8 11.0494V23.0495C8 24.2905 9.009 25.2995 10.25 25.2995H12.5V29.0496C12.5 29.7186 13.311 30.0491 13.78 29.5801L17.8406 25.5195C17.9816 25.3785 18.1716 25.2995 18.3711 25.2995H26.8501C28.0906 25.2995 29.1001 24.2905 29.1001 23.0495V11.0494C29.1002 9.80888 28.0907 8.79938 26.8502 8.79938ZM30.6099 11.7994H31.3499C32.5907 11.7994 33.5999 12.8087 33.5999 14.0494V26.0495C33.5999 27.2902 32.5906 28.2895 31.3499 28.2895H29.0999V32.0496C29.0999 32.7201 28.2899 33.0501 27.8196 32.5799L23.5393 28.2895H17.1814L18.7814 26.7995H26.8499C28.9176 26.7995 30.6099 25.1171 30.6099 23.0495V11.7994Z" />
</symbol>
</svg>
