<svg width="40" height="40" viewBox="0 0 40 40" fill="none" xmlns="http://www.w3.org/2000/svg">
<symbol id="support" width="40" height="40" viewBox="0 0 40 40">
    <path fill-rule="evenodd" clip-rule="evenodd" d="M6.4 0C2.86538 0 0 2.86538 0 6.4V33.6C0 37.1346 2.86538 40 6.4 40H33.6C37.1346 40 40 37.1346 40 33.6V6.4C40 2.86538 37.1346 0 33.6 0H6.4ZM11.0117 17.7883C11.0117 12.3912 15.4029 8 20.7999 8C26.197 8 30.5882 12.3912 30.5882 17.7883V29.8354C30.5882 31.0809 29.5749 32.0941 28.3294 32.0941H22.92C22.6081 32.9686 21.7802 33.6 20.7999 33.6C19.5544 33.6 18.5411 32.5867 18.5411 31.3412C18.5411 30.0957 19.5544 29.0824 20.7999 29.0824C21.7802 29.0824 22.6081 29.7137 22.92 30.5883H28.3294C28.7441 30.5883 29.0823 30.2508 29.0823 29.8354V28.9438C28.8456 29.0281 28.5947 29.0824 28.3294 29.0824C27.0837 29.0824 26.0704 28.0691 26.0704 26.8234V19.2941C26.0704 18.0486 27.0837 17.0354 28.3294 17.0354C28.5825 17.0354 28.8238 17.0805 29.0503 17.158C28.7261 12.8854 25.1532 9.50586 20.7999 9.50586C16.4443 9.50586 12.8704 12.8885 12.5492 17.1641C12.7771 17.0867 13.0169 17.0354 13.2704 17.0354C14.5161 17.0354 15.5294 18.0486 15.5294 19.2941V26.8234C15.5294 28.0691 14.5161 29.0824 13.2704 29.0824C12.0249 29.0824 11.0117 28.0691 11.0117 26.8234V17.7883ZM32.094 18.6799V27.4377C32.9684 27.126 33.5999 26.2981 33.5999 25.3176V20.8C33.5999 19.8197 32.9684 18.9918 32.094 18.6799ZM8 25.3176V20.8C8 19.8197 8.63145 18.9918 9.50586 18.6799V27.4377C8.63145 27.126 8 26.2981 8 25.3176Z" />
</symbol>
    </svg>
