<svg width="40" height="40" viewBox="0 0 40 40" fill="none" xmlns="http://www.w3.org/2000/svg">
<symbol id="telegram"  width="40" height="40" viewBox="0 0 40 40">
    <path d="M27.7572 13.1572L13.0852 22.2569C12.8269 22.4171 12.7093 22.7317 12.7995 23.022L14.7676 29.3637C14.8089 29.497 15.0031 29.4786 15.0187 29.3399L15.497 25.0876C15.5155 24.9233 15.5943 24.7717 15.7181 24.6622L28.1427 13.6753C28.4401 13.4123 28.0947 12.9478 27.7572 13.1572Z" />
<path d="M0 0V40H40V0H0ZM33.3427 10.3937L28.7758 32.2276C28.5615 33.2522 27.3598 33.7123 26.516 33.0929L19.6208 28.0316L16.1065 31.6198C15.4898 32.2495 14.4243 31.9947 14.1593 31.1539L11.6226 23.1048L4.82557 21.0976C3.93381 20.8343 3.88124 19.591 4.74763 19.2534L31.4961 8.82977C32.5143 8.43305 33.5664 9.3241 33.3427 10.3937Z" />
</symbol>
</svg>
