<svg width="29" height="29" viewBox="0 0 29 29" fill="none" xmlns="http://www.w3.org/2000/svg">
<symbol id="scale-img" width="29" height="29" viewBox="0 0 29 29">
    <path d="M28.5555 26.0891L21.9814 19.5149C23.5641 17.4079 24.4186 14.8431 24.4157 12.2078C24.4157 5.47648 18.9392 0 12.2078 0C5.47648 0 0 5.47648 0 12.2078C0 18.9392 5.47648 24.4157 12.2078 24.4157C14.8431 24.4186 17.4079 23.5641 19.5149 21.9814L26.0891 28.5555C26.4219 28.853 26.8559 29.0118 27.3021 28.9993C27.7483 28.9868 28.1728 28.804 28.4884 28.4884C28.804 28.1728 28.9868 27.7483 28.9993 27.3021C29.0118 26.8559 28.853 26.4219 28.5555 26.0891ZM3.48795 12.2078C3.48795 10.4832 3.99937 8.79731 4.95752 7.36333C5.91567 5.92935 7.27753 4.8117 8.87088 4.15172C10.4642 3.49173 12.2175 3.31905 13.909 3.6555C15.6005 3.99196 17.1542 4.82245 18.3737 6.04195C19.5932 7.26145 20.4237 8.81518 20.7602 10.5067C21.0966 12.1982 20.924 13.9514 20.264 15.5448C19.604 17.1381 18.4863 18.5 17.0523 19.4582C15.6184 20.4163 13.9325 20.9277 12.2078 20.9277C9.89603 20.9249 7.67971 20.0054 6.04501 18.3707C4.41032 16.736 3.49073 14.5196 3.48795 12.2078Z" fill="#FF267E"/>
<rect x="11" y="7" width="2" height="10" rx="1" fill="#FF267E"/>
<rect x="7" y="13" width="2" height="10" rx="1" transform="rotate(-90 7 13)" fill="#FF267E"/>
</symbol>
</svg>
